<svg width="930" height="1235" viewBox="0 0 930 1235" fill="none" xmlns="http://www.w3.org/2000/svg">
<g filter="url(#filter0_d_1_3)">
<path d="M91.5 213L108.5 228L59.5 265L42 277.5H25V289.5H5L7.5 277.5V255L25 228L42 213H71.5H91.5Z" fill="#E3CF99"/>
<path d="M91.5 213L108.5 228L59.5 265L42 277.5H25V289.5H5L7.5 277.5V255L25 228L42 213H71.5H91.5Z" stroke="#E3CF99"/>
</g>
<path d="M855.5 223L816 257.5L855.5 297H880L897.5 324H912L929.5 297V257.5L912 238L880 223H855.5Z" fill="#E3CF99" stroke="#E3CF99"/>
<path d="M416.5 201L318 218L254 252.5L197.5 275L170 307V356L214.5 420.5L283.5 440L416.5 420.5L522.5 388L564.5 326.5L550 252.5L498 218L416.5 201Z" fill="#E3CF99" stroke="black"/>
<path d="M384.5 2.50005C376.8 3.80005 367.8 5.00005 364.5 5.00005C361.2 5.10005 356.7 5.50005 354.5 6.00005C335.2 10.5 304 21.5 287.9 29.4C277.7 34.5 257.1 46.7 248.2 52.8C235.5 61.7 195.3 101.8 187.3 113.6C173.1 134.6 156.1 167.8 151.6 183.4C150.6 186.6 149.2 190.2 148.5 191.4C147.7 192.6 146.8 196 146.4 199C146 202 144.4 207.7 142.9 211.7C140.7 217 140 220.5 140 225.4C140 231.2 139.8 232 138.1 232C137 232 133.8 230.1 130.9 227.8C124.5 222.8 120.2 221.1 113.4 221C106.3 221 94.6 227.5 80 239.6C57 258.6 48.2 268.9 49.3 275.5C50 279.7 74.8 312.7 87.9 326.9C93.2 332.6 100.1 340.4 103.3 344.4C115.3 359.2 117.5 361.8 127.8 372.5C133.6 378.5 141.9 388.2 146.4 394C150.9 399.8 159 409.2 164.6 415C181.6 432.8 192 444.2 198.3 452C207.3 463.1 211.9 468.1 238 494.5C251 507.7 262.8 520.1 264.1 522C267.7 527.2 267.3 539.3 263.1 552.4C261.2 558.2 260 564.1 260 567.4C260 576 256.8 577.1 244.7 572.6C234.7 568.8 225.5 569 208.4 573.5C189.3 578.5 179.1 584 170 594.5C162.9 602.6 160.6 606.5 156.3 617.7C152.7 627.1 152.5 628 152.6 639C152.7 648.6 153.2 651.8 155.4 658.4C156.8 662.7 158 667.9 158 669.9C158 671.9 159.4 677.3 161 682C162.6 686.7 164 691.3 164 692.2C164 693.8 167.6 705.7 172.2 719.5C173.3 722.8 174.9 728.4 175.9 732C176.9 735.6 181 747.5 185 758.5C189 769.5 193.3 781.4 194.6 785C195.8 788.6 198.9 796.9 201.5 803.5C204 810.1 206.5 816.6 207 818C209.2 824.6 222.4 854.6 232.2 875C240.2 891.6 243.6 900.1 251.5 922.5C258.6 942.6 272.1 976.3 276.6 985.3C284.1 1000.4 292 1009.5 299.5 1012C305.7 1014.1 317.8 1012.9 323.3 1009.6C328.3 1006.7 334.1 1000.5 338 993.6C339.4 991.2 341.8 987.3 343.4 984.9C347.4 979 353.5 966.4 355.3 960.4C356.1 957.7 357.7 953.5 358.7 951C359.8 948.5 361 944 361.4 941C361.8 938 363.2 932.3 364.6 928.4C366.8 921.8 367 919.7 367.1 903.4C367.1 884.2 366.7 881.5 362.1 864.5C358.1 850.1 345.6 814.7 340.3 803C335.8 792.9 327.8 765.9 328.9 764.7C330.2 763.4 349.5 770.7 366.5 779.1C376.9 784.1 382.7 789.2 389 798.6C397.6 811.2 399.3 816 399.4 827.5C399.5 842.3 397.6 858.9 395 864.6C393.8 867.3 392.6 872.6 392.3 876.5C392 880.5 390.7 885.8 389.3 888.9C388 891.9 386.6 897.7 386.1 901.9C385.5 906.9 384.3 911.2 382.6 914.4C380.7 918 380 920.8 380 924.9C380 928.8 379.2 932.2 377.4 936C376 939 374.5 944.4 374 948C373.6 951.6 372 957 370.6 960C369.1 963.2 368 967.3 368 969.8C368 972.6 367 976 365 979.7C362.9 983.6 362 986.7 362 989.9C362 992.7 361 996.6 359.5 999.9C358.1 1002.8 356.7 1007.1 356.4 1009.4C355.9 1013.3 352.5 1025 347.9 1038.5C346.8 1041.8 345 1047.6 343.9 1051.4C342.8 1055.2 341.3 1059.5 340.5 1061.1C339.7 1062.6 338.5 1066.3 337.9 1069.2C337.3 1072.1 335.8 1076.3 334.6 1078.5C332.6 1082.3 332.5 1083.9 332.5 1106.5C332.5 1127.6 332.7 1130.9 334.2 1133.2C335.2 1134.7 336.8 1138.9 337.8 1142.7C338.9 1146.5 340.7 1151.8 341.8 1154.5C342.9 1157.3 346 1164.9 348.5 1171.5C356.4 1191.6 367.3 1211.8 374.7 1220C381.7 1227.6 387.9 1232.3 392.2 1233.4C393.7 1233.7 398.4 1234.1 402.5 1234.1C409.3 1234.2 410.6 1233.9 414.3 1231.3C416.6 1229.8 421.2 1225.8 424.5 1222.5C431.4 1215.7 436.1 1205.9 438.8 1193C439.6 1188.9 441.3 1182.6 442.6 1179C444.3 1174.1 445 1169.5 445.4 1160.1C445.8 1150.3 446.3 1147 448 1143.8C449.1 1141.7 450.5 1136.7 451 1132.7C451.6 1128.7 452.9 1123.9 453.9 1122C454.9 1120.1 456.3 1116 457 1113C457.7 1110 459.1 1105.9 460 1104C461 1102.1 462.7 1097.6 463.8 1094C464.9 1090.4 467.5 1083.2 469.5 1078C471.5 1072.8 474.2 1065.3 475.5 1061.5C478.1 1053.9 482.1 1043 487 1030.5C488.8 1026.1 491.4 1019.1 492.9 1015C494.4 1010.9 497.3 1003.4 499.3 998.5C501.3 993.5 505 984.1 507.5 977.5C510 970.9 513.4 962.3 515.1 958.3C516.7 954.4 518 950.5 518 949.8C518 949.1 518.7 947.1 519.6 945.5C520.5 943.8 521.9 940.5 522.7 938C523.5 935.5 525.1 931.6 526.1 929.2C527.2 926.9 530.2 919 532.9 911.7C535.6 904.5 539.8 893.3 542.4 887C545 880.7 547.9 873.2 549 870.5C551.1 864.9 561 839.3 570 816.5C573.2 808.2 576.6 798.8 577.5 795.5C578.5 792.2 579.6 789 580.1 788.4C580.6 787.8 581.9 783 583.1 777.9C584.2 772.7 585.8 767 586.6 765.2C587.5 763.3 588.8 757.7 589.5 752.6C590.2 747.5 591.5 742 592.4 740.2C593.3 738.4 594.6 731.7 595.4 724.3C596.2 716.2 597.4 710.2 598.5 708C600 705.1 600.5 700.7 601.1 683C601.6 670 602.6 658.9 603.5 655C604.4 651.2 605.3 641.2 605.7 631C606.2 614.5 605.8 608.4 603 590C602.5 586.4 601.8 573.4 601.4 561C600.8 540.9 600.9 538.1 602.4 535.2C604.6 530.9 619.3 516.6 629 509.2C633.1 506.1 639.9 500.8 644 497.5C648.1 494.1 657 487.1 663.8 481.9C670.6 476.8 680.6 469 686.2 464.8C691.7 460.5 700 453.8 704.7 449.8C709.3 445.8 715.7 440.7 718.9 438.5C722 436.3 728.2 431.5 732.6 427.9C736.9 424.2 743 419.7 746.1 417.7C749.2 415.7 754.8 411.3 758.6 407.8C762.4 404.3 769.8 398.3 775 394.4C780.2 390.5 787 385.1 790 382.3C793 379.6 798.9 375.1 803 372.3C807.1 369.5 813.7 364.3 817.5 360.8C821.4 357.2 829 351 834.5 347C840 343 848.6 335.8 853.6 331.1C858.5 326.4 865.2 320.2 868.3 317.3C877.3 309.1 876.6 306.6 858.3 280.9C844.5 261.7 828.7 245.6 822.4 244.6C811.3 242.7 798.1 249.6 742.8 286.5C707.4 310.1 693.6 319.5 687.5 324.4C685.3 326.2 680.1 329.8 676 332.4C671.9 335.1 667.4 338.2 666 339.5C663.8 341.6 656 345.5 656 344.5C656 344.3 657.1 341.5 658.4 338.3C663.4 326.6 666 319.4 667.3 313.5C668.1 310.2 669.8 305.5 671 303C673.4 298.5 673.4 298.3 673.3 261.5C673.2 225.4 673.2 224.4 671 219C669.7 216 668.1 210.1 667.4 206C666.3 199.2 662.6 188 655.6 169.7C652.1 160.6 647.7 151.9 642.5 144C640.2 140.4 636.2 133.9 633.7 129.5C631.1 125.1 627.2 119.2 625.1 116.5C622.9 113.7 619.4 108.9 617.3 105.7C608.8 92.8 591.3 74.9 576.5 64C573.2 61.6 567.4 57.1 563.5 54C555.9 47.9 548.2 42.5 543.5 39.9C541.9 39 536 35.8 530.5 32.7C517 25.2 488.6 13.9 477.2 11.5C473.4 10.7 467.9 9.20005 464.9 8.10005C461.5 6.80005 454.8 5.70005 447 5.10005C440.1 4.50005 430.9 3.40005 426.5 2.50005C412.4 -0.299951 400.2 -0.299951 384.5 2.50005ZM454.5 219.1C482.6 222.6 499.3 228.2 514.1 239.1C530.2 251 539.8 266.2 544.5 287.3C547.3 300.1 544.2 316 535.9 330.7C523.3 353 490.9 375 450.5 388.7C439.7 392.3 410.9 400.2 402 401.9C399 402.4 393.2 403.6 389.1 404.5C385 405.4 376.9 406.7 371.1 407.5C365.3 408.2 355.8 409.6 350 410.6C341.5 412.1 333.4 412.4 307.5 412.5H275.5L262.5 409.1C241.7 403.8 235.2 400.9 223.9 392.3C218.5 388.3 212.2 381.4 208.9 376C208 374.6 205.8 369.9 204 365.5C201 358.4 200.6 356.2 200.2 345.9C199.8 336.5 200.1 332.9 201.8 326.3C205.9 310.2 215.2 294.9 229.7 280.4C240.8 269.3 265.9 253.5 285.5 245.2C303 237.8 317.7 233.1 344.7 226.5C359.3 222.9 366.5 221.6 377 220.9C384.4 220.4 395.2 219.3 401 218.5C420.9 215.7 427.8 215.8 454.5 219.1Z" fill="black"/>
<path d="M278.5 343.5L275.5 338.5H270H263L260.5 342L263 348.5V353L267 363H275.5L281.5 356.5V348.5L278.5 343.5Z" fill="white" stroke="white"/>
<path d="M476 307.286L473 303H467.5H460.5L458 306L460.5 311.571V315.429L464.5 324H473L479 318.429V311.571L476 307.286Z" fill="white" stroke="white"/>
<path d="M250 329.9C242 332.5 234.5 339.6 231.5 347.3C226.7 360.1 233.9 376.8 247.4 383.8C257.4 389 273.1 385.9 279.5 377.6C283.4 372.5 285.2 361.2 282.9 356.9C281.9 354.9 281.9 354.9 278.4 356.9C276.5 358.1 273.5 359 271.9 359C269.5 359 268.6 358.4 267.6 355.7C266.8 354 265.9 350.6 265.5 348.4C264.7 343 266.5 341 272.5 341C274.9 341 277.1 340.6 277.4 340.2C278.3 338.7 272.9 333.9 268.1 331.8C263 329.6 253.9 328.6 250 329.9Z" fill="black"/>
<path d="M442.5 294C439.6 295.2 435.8 298.8 431.9 304C428.5 308.4 428.5 308.5 428.5 319C428.5 328.6 428.7 329.8 431.1 333.5C437.3 343 443.8 347 454.1 347.8C465.3 348.6 471.1 345.5 477.7 335.1C481.6 329 482.8 323.2 481.1 318.6L480 315.8L475.5 319.9C472.7 322.5 470.5 323.8 469.5 323.4C467.3 322.5 463 313.7 463 310.2C463 306.7 464.3 305.5 468.8 304.5C471.2 304 472 303.3 472 301.6C472 298.2 469.3 295.2 465.2 294C460.8 292.8 445.3 292.8 442.5 294Z" fill="black"/>
<defs>
<filter id="filter0_d_1_3" x="0.385101" y="212.5" width="112.905" height="85.5" filterUnits="userSpaceOnUse" color-interpolation-filters="sRGB">
<feFlood flood-opacity="0" result="BackgroundImageFix"/>
<feColorMatrix in="SourceAlpha" type="matrix" values="0 0 0 0 0 0 0 0 0 0 0 0 0 0 0 0 0 0 127 0" result="hardAlpha"/>
<feOffset dy="4"/>
<feGaussianBlur stdDeviation="2"/>
<feComposite in2="hardAlpha" operator="out"/>
<feColorMatrix type="matrix" values="0 0 0 0 0 0 0 0 0 0 0 0 0 0 0 0 0 0 0.25 0"/>
<feBlend mode="normal" in2="BackgroundImageFix" result="effect1_dropShadow_1_3"/>
<feBlend mode="normal" in="SourceGraphic" in2="effect1_dropShadow_1_3" result="shape"/>
</filter>
</defs>
</svg>
