<svg width="1125" height="925" viewBox="0 0 1125 925" fill="none" xmlns="http://www.w3.org/2000/svg">
<g clip-path="url(#clip0_2_2)" filter="url(#filter0_d_2_2)">
<g filter="url(#filter1_d_2_2)">
<path d="M660.5 273H594.5L486 285L408 331.5V386L437 436.5L569.5 467.5H660.5L750 436.5L791 413V372V343L773.5 319.5L750 302L715 285L660.5 273Z" fill="#FFE49D" stroke="black"/>
<path d="M727.75 338L715.964 344.857L703 351.714V362L715.964 370H736V351.714L727.75 338Z" fill="white" stroke="black"/>
<path d="M515 338L505 344L494 350V359L505 366H522V350L515 338Z" fill="white" stroke="black"/>
<path d="M717.2 336.6C710.9 339.8 705 346 702 352.8C698 361.6 698.1 365.3 703 375.5C707.4 384.8 709.8 387 718.8 390.2C727.3 393.2 733.2 392.9 741 389.1C753.4 383 758 376 758 363.4C758 358.3 757.4 354.6 756.3 352.2C753.7 346.5 744 337.4 739.4 336.1C733.5 334.5 721.1 334.8 717.2 336.6ZM723.6 345.1C728.2 347.9 729.1 349.9 727.9 354.4C726.3 360.3 722.9 363.5 718.1 363.5C714.7 363.5 713.5 362.9 711.1 360C707.7 356.1 707.5 355.2 709.2 351.5C710.3 349 717.5 343 719.3 343C719.8 343 721.8 343.9 723.6 345.1Z" fill="black"/>
<g filter="url(#filter2_d_2_2)">
<mask id="path-5-outside-1_2_2" maskUnits="userSpaceOnUse" x="53" y="57.8472" width="1036" height="860" fill="black">
<rect fill="white" x="53" y="57.8472" width="1036" height="860"/>
<path d="M575.099 59.5255C572.899 60.0255 567.499 61.3255 563.199 62.5255C558.799 63.6255 554.099 64.6255 552.599 64.6255C548.799 64.6255 524.899 72.6255 504.699 80.5255C491.599 85.7255 474.599 95.0255 460.099 104.925C437.499 120.225 404.799 153.325 388.899 176.825C380.699 188.925 372.299 203.925 367.299 215.125C359.399 233.325 355.599 242.725 355.599 244.625C355.599 245.725 354.499 248.925 353.099 251.525C351.799 254.225 350.199 259.525 349.599 263.225C348.999 267.025 347.599 272.125 346.399 274.625C344.699 278.225 344.199 282.125 343.599 294.625C343.199 303.125 342.299 314.025 341.499 318.925C340.499 326.025 340.499 329.425 341.499 337.425C342.199 342.725 343.099 353.425 343.599 361.225C344.099 371.125 344.899 376.225 346.099 378.525C346.999 380.325 348.399 385.125 349.099 389.125C351.399 401.125 362.399 424.925 373.399 441.625C379.199 450.525 405.399 477.525 413.199 482.725C415.299 484.125 420.399 487.525 424.499 490.225C428.499 492.925 432.999 495.825 434.499 496.725C438.199 499.025 437.899 504.525 433.399 514.325C431.399 518.625 426.799 529.325 423.099 538.125C400.299 592.825 395.499 603.625 393.199 605.225C390.999 606.825 385.399 610.225 372.099 618.125C359.999 625.325 347.699 632.925 331.299 643.325C323.099 648.425 316.199 652.625 315.899 652.625C315.599 652.625 313.899 653.625 312.199 654.925C310.499 656.225 305.399 659.425 300.799 662.225C287.499 670.125 286.499 670.825 278.099 676.125C273.699 678.925 265.199 684.325 259.099 688.125C234.999 703.225 190.499 732.125 175.099 742.725C170.199 746.125 161.799 751.825 156.599 755.425C151.399 758.925 145.999 762.825 144.599 764.125C143.199 765.425 138.999 768.425 135.099 770.925C131.299 773.425 123.599 779.825 118.099 785.125C112.599 790.425 104.699 797.325 100.599 800.425C89.6987 808.625 86.3987 811.825 77.8987 822.425C73.5987 827.725 67.5987 834.825 64.4987 838.425C57.6987 846.125 56.0987 849.125 54.5987 857.625C53.6987 862.925 53.7987 865.025 54.9987 869.025C56.4987 873.825 61.7987 880.625 64.1987 880.625C64.7987 880.625 66.3987 881.425 67.6987 882.525C68.9987 883.525 72.7987 884.925 76.0987 885.625C79.3987 886.325 85.3987 887.925 89.4987 889.325L96.7987 891.725L137.999 891.325L179.099 891.025L190.299 887.825C203.299 884.225 210.499 880.825 219.899 873.725C223.599 870.925 229.199 867.025 232.399 865.025C235.499 863.025 240.399 859.325 243.099 856.925C245.899 854.525 249.699 851.825 251.599 850.825C253.499 849.825 258.899 846.525 263.599 843.425C268.299 840.425 277.299 835.025 283.599 831.425C289.899 827.925 302.999 820.525 312.599 815.025C365.699 784.625 418.699 757.825 468.999 735.925C474.399 733.525 479.899 731.625 481.199 731.625C484.499 731.625 487.599 736.125 487.599 740.825C487.599 742.925 488.699 747.325 490.099 750.525C491.399 753.825 492.999 758.625 493.599 761.325C494.199 763.925 495.699 768.625 496.999 771.625C498.399 774.625 499.799 779.325 500.199 782.125C500.599 784.825 501.899 789.325 503.099 792.125C504.299 794.825 505.599 798.425 505.999 800.125C507.099 804.525 513.999 823.125 517.399 830.725C518.999 834.325 522.399 839.625 524.999 842.525C527.499 845.325 529.599 848.525 529.599 849.625C529.599 850.625 527.999 852.725 526.099 854.225C522.899 856.625 518.699 861.925 503.899 882.025C501.099 885.925 497.599 890.625 496.199 892.525C493.799 895.625 493.599 896.825 493.599 905.225C493.599 910.325 493.999 914.725 494.499 915.125C495.099 915.425 500.799 915.725 507.299 915.825C518.599 915.925 519.499 915.825 528.599 912.225C533.799 910.225 540.499 907.525 543.399 906.125C550.599 902.725 567.299 891.625 573.299 886.225C575.999 883.825 581.099 880.025 584.699 877.925L591.099 874.125L608.599 873.825C618.199 873.625 626.499 873.125 626.999 872.625C628.499 871.225 623.199 863.525 615.899 856.525C603.499 844.725 599.599 834.325 605.499 828.825C606.999 827.325 609.099 824.925 609.999 823.525C611.499 821.025 611.499 820.825 609.599 818.325C607.799 816.125 607.399 813.525 606.699 800.425C605.999 788.125 605.399 784.225 603.699 780.425C602.299 777.425 601.299 772.725 600.999 767.425C600.599 761.925 599.599 757.225 597.999 753.525C596.499 749.925 595.299 744.625 594.799 738.525C594.199 731.825 593.199 727.825 591.499 724.625C588.399 718.725 587.999 704.825 590.899 701.925C592.599 700.225 596.799 700.125 657.399 699.825C692.999 699.625 724.499 699.825 727.399 700.125C731.699 700.625 732.899 701.225 733.599 703.025C734.999 706.725 732.899 727.425 730.499 734.125C728.699 739.325 728.299 743.325 727.599 765.125C727.199 778.825 726.299 794.625 725.599 800.125C724.499 809.025 724.599 811.825 726.399 825.825C728.599 842.625 729.599 845.325 736.299 854.325C748.999 871.125 787.999 895.325 819.099 905.525C831.299 909.525 831.899 909.625 845.499 909.625H859.399L864.199 906.325C867.399 904.125 869.499 901.725 870.299 899.525C871.999 894.925 870.999 877.325 868.499 868.125C867.399 864.325 865.899 853.225 865.099 843.625C864.299 834.025 862.999 819.825 861.999 812.125C860.299 797.725 860.499 785.125 862.599 769.625C863.099 765.525 863.999 751.925 864.599 739.425C865.399 720.525 865.899 715.925 867.599 711.625C868.999 707.925 870.099 701.525 870.999 690.125C871.999 678.225 872.899 673.025 874.199 670.525C875.899 667.525 876.099 664.125 876.399 640.525L876.799 613.925L872.999 606.725C865.899 593.225 849.099 580.125 833.099 575.725C830.699 575.125 819.699 574.625 805.999 574.625C788.999 574.625 782.499 574.325 781.299 573.325C779.699 572.225 779.599 570.825 780.699 555.725C781.399 544.825 782.499 537.225 783.799 533.225C784.999 529.325 785.999 522.325 786.499 513.525C786.999 506.025 787.799 499.025 788.399 498.025C790.099 494.925 795.699 490.225 802.099 486.325C810.099 481.525 825.399 467.825 840.099 452.225C848.899 442.825 853.499 437.125 857.299 430.325C861.899 422.325 869.999 403.225 872.199 395.625C873.699 390.125 877.099 385.125 884.799 376.825C889.199 372.025 895.099 364.725 897.899 360.625C900.699 356.525 909.999 345.925 918.599 337.125C927.399 328.125 936.599 317.625 939.599 313.125C942.599 308.725 949.999 299.925 956.099 293.625C962.199 287.325 970.099 278.025 973.599 273.125C977.099 268.125 984.299 259.625 989.699 254.025C995.099 248.425 1001.1 241.225 1003.2 238.025C1005.3 234.825 1010.2 228.125 1014.2 223.225C1018.2 218.425 1023.1 211.125 1025.1 207.025C1029 198.825 1031 197.125 1037.6 196.125C1040.1 195.725 1044.8 194.425 1048.1 193.125C1051.4 191.925 1056.4 190.325 1059.1 189.725C1064.3 188.425 1068.9 186.625 1079.5 181.325C1084.6 178.725 1086.1 177.425 1086.8 175.125C1088.2 170.025 1086.7 160.525 1083.8 156.125C1080.7 151.425 1073.6 143.325 1072.1 142.725C1071.6 142.525 1069.2 141.025 1066.9 139.525C1064.6 137.925 1062.5 136.625 1062.1 136.625C1061.8 136.625 1059.1 135.525 1056.3 134.125C1052.8 132.525 1047.1 131.225 1039.1 130.125C1028.4 128.725 1025.6 128.725 1014.1 130.025C999.899 131.625 998.299 132.125 978.299 142.225C971.199 145.725 964.499 148.625 963.499 148.625C962.399 148.625 958.199 150.225 954.199 152.125C947.899 155.125 943.899 158.325 926.999 174.325C916.099 184.725 898.299 201.825 887.499 212.325C863.799 235.625 863.099 235.925 859.099 223.625C858.099 220.625 856.499 216.525 855.499 214.625C854.499 212.725 852.599 208.425 851.099 205.125C848.299 198.625 841.299 186.325 838.499 183.125C837.599 182.025 835.999 179.525 835.099 177.625C834.099 175.725 831.399 171.825 829.099 169.125C826.799 166.325 824.299 163.025 823.599 161.625C821.199 157.025 815.199 150.325 798.799 133.925C783.999 119.125 777.499 113.825 758.999 101.025C738.899 87.1255 692.099 67.6255 671.999 64.7255C667.999 64.1255 661.999 62.6255 658.499 61.5255C652.499 59.4255 649.999 59.3255 615.599 59.0255C595.499 58.9255 577.299 59.1255 575.099 59.5255ZM652.099 272.025C658.199 272.925 667.199 274.025 672.099 274.525C680.599 275.425 696.799 278.625 711.599 282.325C719.299 284.225 735.199 290.325 743.899 294.725C768.199 306.925 784.099 324.425 790.799 345.925C795.099 359.925 793.399 378.225 786.499 392.525C776.899 412.125 748.499 430.525 713.699 439.725C684.599 447.325 636.799 451.425 590.599 450.125C555.699 449.225 546.499 448.325 514.599 442.725C486.499 437.825 458.099 425.125 444.099 411.125C435.299 402.325 428.899 391.425 427.499 382.525C425.999 373.825 426.999 355.225 429.299 348.425C434.799 332.125 448.399 315.825 466.099 304.425C482.599 293.725 496.899 287.825 522.099 281.225C539.799 276.525 547.899 275.125 570.099 272.625C580.599 271.425 589.799 270.325 590.599 270.125C594.399 269.125 642.099 270.625 652.099 272.025Z"/>
</mask>
<path d="M575.099 59.5255C572.899 60.0255 567.499 61.3255 563.199 62.5255C558.799 63.6255 554.099 64.6255 552.599 64.6255C548.799 64.6255 524.899 72.6255 504.699 80.5255C491.599 85.7255 474.599 95.0255 460.099 104.925C437.499 120.225 404.799 153.325 388.899 176.825C380.699 188.925 372.299 203.925 367.299 215.125C359.399 233.325 355.599 242.725 355.599 244.625C355.599 245.725 354.499 248.925 353.099 251.525C351.799 254.225 350.199 259.525 349.599 263.225C348.999 267.025 347.599 272.125 346.399 274.625C344.699 278.225 344.199 282.125 343.599 294.625C343.199 303.125 342.299 314.025 341.499 318.925C340.499 326.025 340.499 329.425 341.499 337.425C342.199 342.725 343.099 353.425 343.599 361.225C344.099 371.125 344.899 376.225 346.099 378.525C346.999 380.325 348.399 385.125 349.099 389.125C351.399 401.125 362.399 424.925 373.399 441.625C379.199 450.525 405.399 477.525 413.199 482.725C415.299 484.125 420.399 487.525 424.499 490.225C428.499 492.925 432.999 495.825 434.499 496.725C438.199 499.025 437.899 504.525 433.399 514.325C431.399 518.625 426.799 529.325 423.099 538.125C400.299 592.825 395.499 603.625 393.199 605.225C390.999 606.825 385.399 610.225 372.099 618.125C359.999 625.325 347.699 632.925 331.299 643.325C323.099 648.425 316.199 652.625 315.899 652.625C315.599 652.625 313.899 653.625 312.199 654.925C310.499 656.225 305.399 659.425 300.799 662.225C287.499 670.125 286.499 670.825 278.099 676.125C273.699 678.925 265.199 684.325 259.099 688.125C234.999 703.225 190.499 732.125 175.099 742.725C170.199 746.125 161.799 751.825 156.599 755.425C151.399 758.925 145.999 762.825 144.599 764.125C143.199 765.425 138.999 768.425 135.099 770.925C131.299 773.425 123.599 779.825 118.099 785.125C112.599 790.425 104.699 797.325 100.599 800.425C89.6987 808.625 86.3987 811.825 77.8987 822.425C73.5987 827.725 67.5987 834.825 64.4987 838.425C57.6987 846.125 56.0987 849.125 54.5987 857.625C53.6987 862.925 53.7987 865.025 54.9987 869.025C56.4987 873.825 61.7987 880.625 64.1987 880.625C64.7987 880.625 66.3987 881.425 67.6987 882.525C68.9987 883.525 72.7987 884.925 76.0987 885.625C79.3987 886.325 85.3987 887.925 89.4987 889.325L96.7987 891.725L137.999 891.325L179.099 891.025L190.299 887.825C203.299 884.225 210.499 880.825 219.899 873.725C223.599 870.925 229.199 867.025 232.399 865.025C235.499 863.025 240.399 859.325 243.099 856.925C245.899 854.525 249.699 851.825 251.599 850.825C253.499 849.825 258.899 846.525 263.599 843.425C268.299 840.425 277.299 835.025 283.599 831.425C289.899 827.925 302.999 820.525 312.599 815.025C365.699 784.625 418.699 757.825 468.999 735.925C474.399 733.525 479.899 731.625 481.199 731.625C484.499 731.625 487.599 736.125 487.599 740.825C487.599 742.925 488.699 747.325 490.099 750.525C491.399 753.825 492.999 758.625 493.599 761.325C494.199 763.925 495.699 768.625 496.999 771.625C498.399 774.625 499.799 779.325 500.199 782.125C500.599 784.825 501.899 789.325 503.099 792.125C504.299 794.825 505.599 798.425 505.999 800.125C507.099 804.525 513.999 823.125 517.399 830.725C518.999 834.325 522.399 839.625 524.999 842.525C527.499 845.325 529.599 848.525 529.599 849.625C529.599 850.625 527.999 852.725 526.099 854.225C522.899 856.625 518.699 861.925 503.899 882.025C501.099 885.925 497.599 890.625 496.199 892.525C493.799 895.625 493.599 896.825 493.599 905.225C493.599 910.325 493.999 914.725 494.499 915.125C495.099 915.425 500.799 915.725 507.299 915.825C518.599 915.925 519.499 915.825 528.599 912.225C533.799 910.225 540.499 907.525 543.399 906.125C550.599 902.725 567.299 891.625 573.299 886.225C575.999 883.825 581.099 880.025 584.699 877.925L591.099 874.125L608.599 873.825C618.199 873.625 626.499 873.125 626.999 872.625C628.499 871.225 623.199 863.525 615.899 856.525C603.499 844.725 599.599 834.325 605.499 828.825C606.999 827.325 609.099 824.925 609.999 823.525C611.499 821.025 611.499 820.825 609.599 818.325C607.799 816.125 607.399 813.525 606.699 800.425C605.999 788.125 605.399 784.225 603.699 780.425C602.299 777.425 601.299 772.725 600.999 767.425C600.599 761.925 599.599 757.225 597.999 753.525C596.499 749.925 595.299 744.625 594.799 738.525C594.199 731.825 593.199 727.825 591.499 724.625C588.399 718.725 587.999 704.825 590.899 701.925C592.599 700.225 596.799 700.125 657.399 699.825C692.999 699.625 724.499 699.825 727.399 700.125C731.699 700.625 732.899 701.225 733.599 703.025C734.999 706.725 732.899 727.425 730.499 734.125C728.699 739.325 728.299 743.325 727.599 765.125C727.199 778.825 726.299 794.625 725.599 800.125C724.499 809.025 724.599 811.825 726.399 825.825C728.599 842.625 729.599 845.325 736.299 854.325C748.999 871.125 787.999 895.325 819.099 905.525C831.299 909.525 831.899 909.625 845.499 909.625H859.399L864.199 906.325C867.399 904.125 869.499 901.725 870.299 899.525C871.999 894.925 870.999 877.325 868.499 868.125C867.399 864.325 865.899 853.225 865.099 843.625C864.299 834.025 862.999 819.825 861.999 812.125C860.299 797.725 860.499 785.125 862.599 769.625C863.099 765.525 863.999 751.925 864.599 739.425C865.399 720.525 865.899 715.925 867.599 711.625C868.999 707.925 870.099 701.525 870.999 690.125C871.999 678.225 872.899 673.025 874.199 670.525C875.899 667.525 876.099 664.125 876.399 640.525L876.799 613.925L872.999 606.725C865.899 593.225 849.099 580.125 833.099 575.725C830.699 575.125 819.699 574.625 805.999 574.625C788.999 574.625 782.499 574.325 781.299 573.325C779.699 572.225 779.599 570.825 780.699 555.725C781.399 544.825 782.499 537.225 783.799 533.225C784.999 529.325 785.999 522.325 786.499 513.525C786.999 506.025 787.799 499.025 788.399 498.025C790.099 494.925 795.699 490.225 802.099 486.325C810.099 481.525 825.399 467.825 840.099 452.225C848.899 442.825 853.499 437.125 857.299 430.325C861.899 422.325 869.999 403.225 872.199 395.625C873.699 390.125 877.099 385.125 884.799 376.825C889.199 372.025 895.099 364.725 897.899 360.625C900.699 356.525 909.999 345.925 918.599 337.125C927.399 328.125 936.599 317.625 939.599 313.125C942.599 308.725 949.999 299.925 956.099 293.625C962.199 287.325 970.099 278.025 973.599 273.125C977.099 268.125 984.299 259.625 989.699 254.025C995.099 248.425 1001.1 241.225 1003.2 238.025C1005.3 234.825 1010.2 228.125 1014.2 223.225C1018.2 218.425 1023.1 211.125 1025.1 207.025C1029 198.825 1031 197.125 1037.6 196.125C1040.1 195.725 1044.8 194.425 1048.1 193.125C1051.4 191.925 1056.4 190.325 1059.1 189.725C1064.3 188.425 1068.9 186.625 1079.5 181.325C1084.6 178.725 1086.1 177.425 1086.8 175.125C1088.2 170.025 1086.7 160.525 1083.8 156.125C1080.7 151.425 1073.6 143.325 1072.1 142.725C1071.6 142.525 1069.2 141.025 1066.9 139.525C1064.6 137.925 1062.5 136.625 1062.1 136.625C1061.8 136.625 1059.1 135.525 1056.3 134.125C1052.8 132.525 1047.1 131.225 1039.1 130.125C1028.4 128.725 1025.6 128.725 1014.1 130.025C999.899 131.625 998.299 132.125 978.299 142.225C971.199 145.725 964.499 148.625 963.499 148.625C962.399 148.625 958.199 150.225 954.199 152.125C947.899 155.125 943.899 158.325 926.999 174.325C916.099 184.725 898.299 201.825 887.499 212.325C863.799 235.625 863.099 235.925 859.099 223.625C858.099 220.625 856.499 216.525 855.499 214.625C854.499 212.725 852.599 208.425 851.099 205.125C848.299 198.625 841.299 186.325 838.499 183.125C837.599 182.025 835.999 179.525 835.099 177.625C834.099 175.725 831.399 171.825 829.099 169.125C826.799 166.325 824.299 163.025 823.599 161.625C821.199 157.025 815.199 150.325 798.799 133.925C783.999 119.125 777.499 113.825 758.999 101.025C738.899 87.1255 692.099 67.6255 671.999 64.7255C667.999 64.1255 661.999 62.6255 658.499 61.5255C652.499 59.4255 649.999 59.3255 615.599 59.0255C595.499 58.9255 577.299 59.1255 575.099 59.5255ZM652.099 272.025C658.199 272.925 667.199 274.025 672.099 274.525C680.599 275.425 696.799 278.625 711.599 282.325C719.299 284.225 735.199 290.325 743.899 294.725C768.199 306.925 784.099 324.425 790.799 345.925C795.099 359.925 793.399 378.225 786.499 392.525C776.899 412.125 748.499 430.525 713.699 439.725C684.599 447.325 636.799 451.425 590.599 450.125C555.699 449.225 546.499 448.325 514.599 442.725C486.499 437.825 458.099 425.125 444.099 411.125C435.299 402.325 428.899 391.425 427.499 382.525C425.999 373.825 426.999 355.225 429.299 348.425C434.799 332.125 448.399 315.825 466.099 304.425C482.599 293.725 496.899 287.825 522.099 281.225C539.799 276.525 547.899 275.125 570.099 272.625C580.599 271.425 589.799 270.325 590.599 270.125C594.399 269.125 642.099 270.625 652.099 272.025Z" fill="black"/>
<path d="M575.099 59.5255C572.899 60.0255 567.499 61.3255 563.199 62.5255C558.799 63.6255 554.099 64.6255 552.599 64.6255C548.799 64.6255 524.899 72.6255 504.699 80.5255C491.599 85.7255 474.599 95.0255 460.099 104.925C437.499 120.225 404.799 153.325 388.899 176.825C380.699 188.925 372.299 203.925 367.299 215.125C359.399 233.325 355.599 242.725 355.599 244.625C355.599 245.725 354.499 248.925 353.099 251.525C351.799 254.225 350.199 259.525 349.599 263.225C348.999 267.025 347.599 272.125 346.399 274.625C344.699 278.225 344.199 282.125 343.599 294.625C343.199 303.125 342.299 314.025 341.499 318.925C340.499 326.025 340.499 329.425 341.499 337.425C342.199 342.725 343.099 353.425 343.599 361.225C344.099 371.125 344.899 376.225 346.099 378.525C346.999 380.325 348.399 385.125 349.099 389.125C351.399 401.125 362.399 424.925 373.399 441.625C379.199 450.525 405.399 477.525 413.199 482.725C415.299 484.125 420.399 487.525 424.499 490.225C428.499 492.925 432.999 495.825 434.499 496.725C438.199 499.025 437.899 504.525 433.399 514.325C431.399 518.625 426.799 529.325 423.099 538.125C400.299 592.825 395.499 603.625 393.199 605.225C390.999 606.825 385.399 610.225 372.099 618.125C359.999 625.325 347.699 632.925 331.299 643.325C323.099 648.425 316.199 652.625 315.899 652.625C315.599 652.625 313.899 653.625 312.199 654.925C310.499 656.225 305.399 659.425 300.799 662.225C287.499 670.125 286.499 670.825 278.099 676.125C273.699 678.925 265.199 684.325 259.099 688.125C234.999 703.225 190.499 732.125 175.099 742.725C170.199 746.125 161.799 751.825 156.599 755.425C151.399 758.925 145.999 762.825 144.599 764.125C143.199 765.425 138.999 768.425 135.099 770.925C131.299 773.425 123.599 779.825 118.099 785.125C112.599 790.425 104.699 797.325 100.599 800.425C89.6987 808.625 86.3987 811.825 77.8987 822.425C73.5987 827.725 67.5987 834.825 64.4987 838.425C57.6987 846.125 56.0987 849.125 54.5987 857.625C53.6987 862.925 53.7987 865.025 54.9987 869.025C56.4987 873.825 61.7987 880.625 64.1987 880.625C64.7987 880.625 66.3987 881.425 67.6987 882.525C68.9987 883.525 72.7987 884.925 76.0987 885.625C79.3987 886.325 85.3987 887.925 89.4987 889.325L96.7987 891.725L137.999 891.325L179.099 891.025L190.299 887.825C203.299 884.225 210.499 880.825 219.899 873.725C223.599 870.925 229.199 867.025 232.399 865.025C235.499 863.025 240.399 859.325 243.099 856.925C245.899 854.525 249.699 851.825 251.599 850.825C253.499 849.825 258.899 846.525 263.599 843.425C268.299 840.425 277.299 835.025 283.599 831.425C289.899 827.925 302.999 820.525 312.599 815.025C365.699 784.625 418.699 757.825 468.999 735.925C474.399 733.525 479.899 731.625 481.199 731.625C484.499 731.625 487.599 736.125 487.599 740.825C487.599 742.925 488.699 747.325 490.099 750.525C491.399 753.825 492.999 758.625 493.599 761.325C494.199 763.925 495.699 768.625 496.999 771.625C498.399 774.625 499.799 779.325 500.199 782.125C500.599 784.825 501.899 789.325 503.099 792.125C504.299 794.825 505.599 798.425 505.999 800.125C507.099 804.525 513.999 823.125 517.399 830.725C518.999 834.325 522.399 839.625 524.999 842.525C527.499 845.325 529.599 848.525 529.599 849.625C529.599 850.625 527.999 852.725 526.099 854.225C522.899 856.625 518.699 861.925 503.899 882.025C501.099 885.925 497.599 890.625 496.199 892.525C493.799 895.625 493.599 896.825 493.599 905.225C493.599 910.325 493.999 914.725 494.499 915.125C495.099 915.425 500.799 915.725 507.299 915.825C518.599 915.925 519.499 915.825 528.599 912.225C533.799 910.225 540.499 907.525 543.399 906.125C550.599 902.725 567.299 891.625 573.299 886.225C575.999 883.825 581.099 880.025 584.699 877.925L591.099 874.125L608.599 873.825C618.199 873.625 626.499 873.125 626.999 872.625C628.499 871.225 623.199 863.525 615.899 856.525C603.499 844.725 599.599 834.325 605.499 828.825C606.999 827.325 609.099 824.925 609.999 823.525C611.499 821.025 611.499 820.825 609.599 818.325C607.799 816.125 607.399 813.525 606.699 800.425C605.999 788.125 605.399 784.225 603.699 780.425C602.299 777.425 601.299 772.725 600.999 767.425C600.599 761.925 599.599 757.225 597.999 753.525C596.499 749.925 595.299 744.625 594.799 738.525C594.199 731.825 593.199 727.825 591.499 724.625C588.399 718.725 587.999 704.825 590.899 701.925C592.599 700.225 596.799 700.125 657.399 699.825C692.999 699.625 724.499 699.825 727.399 700.125C731.699 700.625 732.899 701.225 733.599 703.025C734.999 706.725 732.899 727.425 730.499 734.125C728.699 739.325 728.299 743.325 727.599 765.125C727.199 778.825 726.299 794.625 725.599 800.125C724.499 809.025 724.599 811.825 726.399 825.825C728.599 842.625 729.599 845.325 736.299 854.325C748.999 871.125 787.999 895.325 819.099 905.525C831.299 909.525 831.899 909.625 845.499 909.625H859.399L864.199 906.325C867.399 904.125 869.499 901.725 870.299 899.525C871.999 894.925 870.999 877.325 868.499 868.125C867.399 864.325 865.899 853.225 865.099 843.625C864.299 834.025 862.999 819.825 861.999 812.125C860.299 797.725 860.499 785.125 862.599 769.625C863.099 765.525 863.999 751.925 864.599 739.425C865.399 720.525 865.899 715.925 867.599 711.625C868.999 707.925 870.099 701.525 870.999 690.125C871.999 678.225 872.899 673.025 874.199 670.525C875.899 667.525 876.099 664.125 876.399 640.525L876.799 613.925L872.999 606.725C865.899 593.225 849.099 580.125 833.099 575.725C830.699 575.125 819.699 574.625 805.999 574.625C788.999 574.625 782.499 574.325 781.299 573.325C779.699 572.225 779.599 570.825 780.699 555.725C781.399 544.825 782.499 537.225 783.799 533.225C784.999 529.325 785.999 522.325 786.499 513.525C786.999 506.025 787.799 499.025 788.399 498.025C790.099 494.925 795.699 490.225 802.099 486.325C810.099 481.525 825.399 467.825 840.099 452.225C848.899 442.825 853.499 437.125 857.299 430.325C861.899 422.325 869.999 403.225 872.199 395.625C873.699 390.125 877.099 385.125 884.799 376.825C889.199 372.025 895.099 364.725 897.899 360.625C900.699 356.525 909.999 345.925 918.599 337.125C927.399 328.125 936.599 317.625 939.599 313.125C942.599 308.725 949.999 299.925 956.099 293.625C962.199 287.325 970.099 278.025 973.599 273.125C977.099 268.125 984.299 259.625 989.699 254.025C995.099 248.425 1001.1 241.225 1003.2 238.025C1005.3 234.825 1010.2 228.125 1014.2 223.225C1018.2 218.425 1023.1 211.125 1025.1 207.025C1029 198.825 1031 197.125 1037.6 196.125C1040.1 195.725 1044.8 194.425 1048.1 193.125C1051.4 191.925 1056.4 190.325 1059.1 189.725C1064.3 188.425 1068.9 186.625 1079.5 181.325C1084.6 178.725 1086.1 177.425 1086.8 175.125C1088.2 170.025 1086.7 160.525 1083.8 156.125C1080.7 151.425 1073.6 143.325 1072.1 142.725C1071.6 142.525 1069.2 141.025 1066.9 139.525C1064.6 137.925 1062.5 136.625 1062.1 136.625C1061.8 136.625 1059.1 135.525 1056.3 134.125C1052.8 132.525 1047.1 131.225 1039.1 130.125C1028.4 128.725 1025.6 128.725 1014.1 130.025C999.899 131.625 998.299 132.125 978.299 142.225C971.199 145.725 964.499 148.625 963.499 148.625C962.399 148.625 958.199 150.225 954.199 152.125C947.899 155.125 943.899 158.325 926.999 174.325C916.099 184.725 898.299 201.825 887.499 212.325C863.799 235.625 863.099 235.925 859.099 223.625C858.099 220.625 856.499 216.525 855.499 214.625C854.499 212.725 852.599 208.425 851.099 205.125C848.299 198.625 841.299 186.325 838.499 183.125C837.599 182.025 835.999 179.525 835.099 177.625C834.099 175.725 831.399 171.825 829.099 169.125C826.799 166.325 824.299 163.025 823.599 161.625C821.199 157.025 815.199 150.325 798.799 133.925C783.999 119.125 777.499 113.825 758.999 101.025C738.899 87.1255 692.099 67.6255 671.999 64.7255C667.999 64.1255 661.999 62.6255 658.499 61.5255C652.499 59.4255 649.999 59.3255 615.599 59.0255C595.499 58.9255 577.299 59.1255 575.099 59.5255ZM652.099 272.025C658.199 272.925 667.199 274.025 672.099 274.525C680.599 275.425 696.799 278.625 711.599 282.325C719.299 284.225 735.199 290.325 743.899 294.725C768.199 306.925 784.099 324.425 790.799 345.925C795.099 359.925 793.399 378.225 786.499 392.525C776.899 412.125 748.499 430.525 713.699 439.725C684.599 447.325 636.799 451.425 590.599 450.125C555.699 449.225 546.499 448.325 514.599 442.725C486.499 437.825 458.099 425.125 444.099 411.125C435.299 402.325 428.899 391.425 427.499 382.525C425.999 373.825 426.999 355.225 429.299 348.425C434.799 332.125 448.399 315.825 466.099 304.425C482.599 293.725 496.899 287.825 522.099 281.225C539.799 276.525 547.899 275.125 570.099 272.625C580.599 271.425 589.799 270.325 590.599 270.125C594.399 269.125 642.099 270.625 652.099 272.025Z" stroke="black" stroke-width="2" mask="url(#path-5-outside-1_2_2)"/>
</g>
<path d="M507.5 336.6C497.2 341.9 489.7 353 489.6 363C489.6 369.8 494.3 380.3 499.4 384.8C502.9 387.8 510.8 391.3 518 392.9C525.4 394.6 539.2 387.1 544.5 378.5C547 374.5 547.6 372.4 547.8 366C548.3 355.4 546.8 350.8 541 344.6C533.8 337 529.2 335 518.9 335C513.3 335 509.5 335.5 507.5 336.6ZM515.7 346.6C517.9 348.8 518.2 349.8 517.7 353.6C516.5 364.8 508 367.6 501.1 359C498.1 355.2 497.9 354.7 499.1 351.9C500.6 348.2 506.5 344 510.3 344C512 344 514.1 345 515.7 346.6Z" fill="black"/>
</g>
</g>
<defs>
<filter id="filter0_d_2_2" x="-4" y="0" width="1133" height="928" filterUnits="userSpaceOnUse" color-interpolation-filters="sRGB">
<feFlood flood-opacity="0" result="BackgroundImageFix"/>
<feColorMatrix in="SourceAlpha" type="matrix" values="0 0 0 0 0 0 0 0 0 0 0 0 0 0 0 0 0 0 127 0" result="hardAlpha"/>
<feOffset dy="4"/>
<feGaussianBlur stdDeviation="2"/>
<feComposite in2="hardAlpha" operator="out"/>
<feColorMatrix type="matrix" values="0 0 0 0 0 0 0 0 0 0 0 0 0 0 0 0 0 0 0.25 0"/>
<feBlend mode="normal" in2="BackgroundImageFix" result="effect1_dropShadow_2_2"/>
<feBlend mode="normal" in="SourceGraphic" in2="effect1_dropShadow_2_2" result="shape"/>
</filter>
<filter id="filter1_d_2_2" x="49" y="58" width="1043.33" height="866.847" filterUnits="userSpaceOnUse" color-interpolation-filters="sRGB">
<feFlood flood-opacity="0" result="BackgroundImageFix"/>
<feColorMatrix in="SourceAlpha" type="matrix" values="0 0 0 0 0 0 0 0 0 0 0 0 0 0 0 0 0 0 127 0" result="hardAlpha"/>
<feOffset dy="4"/>
<feGaussianBlur stdDeviation="2"/>
<feComposite in2="hardAlpha" operator="out"/>
<feColorMatrix type="matrix" values="0 0 0 0 0 0 0 0 0 0 0 0 0 0 0 0 0 0 0.25 0"/>
<feBlend mode="normal" in2="BackgroundImageFix" result="effect1_dropShadow_2_2"/>
<feBlend mode="normal" in="SourceGraphic" in2="effect1_dropShadow_2_2" result="shape"/>
</filter>
<filter id="filter2_d_2_2" x="49" y="58" width="1043.33" height="866.847" filterUnits="userSpaceOnUse" color-interpolation-filters="sRGB">
<feFlood flood-opacity="0" result="BackgroundImageFix"/>
<feColorMatrix in="SourceAlpha" type="matrix" values="0 0 0 0 0 0 0 0 0 0 0 0 0 0 0 0 0 0 127 0" result="hardAlpha"/>
<feOffset dy="4"/>
<feGaussianBlur stdDeviation="2"/>
<feComposite in2="hardAlpha" operator="out"/>
<feColorMatrix type="matrix" values="0 0 0 0 0 0 0 0 0 0 0 0 0 0 0 0 0 0 0.25 0"/>
<feBlend mode="normal" in2="BackgroundImageFix" result="effect1_dropShadow_2_2"/>
<feBlend mode="normal" in="SourceGraphic" in2="effect1_dropShadow_2_2" result="shape"/>
</filter>
<clipPath id="clip0_2_2">
<rect width="1125" height="920" fill="white"/>
</clipPath>
</defs>
</svg>
