<?xml version="1.0" standalone="no"?>
<!DOCTYPE svg PUBLIC "-//W3C//DTD SVG 20010904//EN"
 "http://www.w3.org/TR/2001/REC-SVG-20010904/DTD/svg10.dtd">
<svg version="1.0" xmlns="http://www.w3.org/2000/svg"
 width="745.000000pt" height="319.000000pt" viewBox="0 0 745.000000 319.000000"
 preserveAspectRatio="xMidYMid meet">

<g transform="translate(0.000000,319.000000) scale(0.100000,-0.100000)"
fill="#c92222" stroke="none">
<path d="M3385 2703 c-50 -6 -187 -42 -245 -64 -338 -128 -617 -430 -710 -770
-34 -125 -40 -178 -40 -328 0 -244 50 -416 183 -631 l45 -72 -67 -116 c-37
-65 -88 -154 -114 -199 -52 -90 -58 -126 -27 -143 14 -7 88 -10 214 -8 229 4
211 -5 293 143 31 55 87 152 123 215 107 183 120 209 120 236 0 16 -23 51 -67
103 -126 146 -183 293 -183 476 0 328 215 603 535 687 67 17 99 20 205 15 69
-3 139 -11 156 -18 43 -17 86 2 115 50 113 189 189 336 189 366 0 64 -5 65
-370 64 -179 -1 -338 -4 -355 -6z"/>
<path d="M4380 2683 c-42 -54 -310 -537 -310 -560 0 -13 21 -46 51 -79 142
-157 202 -307 201 -504 0 -127 -23 -219 -83 -330 -138 -259 -454 -418 -728
-366 -116 22 -153 21 -179 -7 -37 -40 -212 -360 -212 -389 0 -36 30 -65 75
-74 20 -3 168 -4 328 -1 237 5 309 9 382 25 251 55 423 148 600 326 168 168
257 331 317 576 28 116 30 358 4 475 -35 155 -94 296 -171 414 -19 29 -35 57
-35 62 0 6 46 90 102 187 135 235 133 232 121 251 -9 14 -41 16 -226 19 l-215
2 -22 -27z"/>
<path d="M3570 1990 c-58 -58 20 -142 88 -94 28 19 30 74 4 97 -25 23 -68 21
-92 -3z"/>
<path d="M3382 1869 c-18 -6 -50 -27 -71 -48 -29 -29 -50 -40 -84 -45 -126
-19 -202 -162 -149 -279 9 -21 44 -69 77 -107 l60 -69 401 0 402 -1 54 63 c81
91 101 136 96 212 -3 49 -10 70 -32 100 -35 46 -77 72 -130 81 -27 4 -55 19
-82 44 -80 73 -196 79 -274 13 l-31 -25 -37 25 c-68 47 -125 57 -200 36z m113
-93 c38 -16 73 -62 59 -76 -17 -17 -178 34 -171 54 4 13 45 36 65 36 7 0 28
-6 47 -14z m324 3 c38 -14 40 -36 4 -51 -52 -20 -138 -37 -146 -29 -13 13 20
57 56 75 38 19 45 19 86 5z m-574 -126 c11 -51 33 -89 89 -156 31 -36 56 -70
56 -76 0 -7 -25 -11 -64 -11 -63 0 -65 1 -101 43 -49 55 -77 119 -69 152 6 24
56 75 75 75 5 0 11 -12 14 -27z m798 7 c57 -45 45 -120 -34 -205 -41 -44 -43
-45 -105 -45 -72 0 -81 11 -38 51 32 30 114 143 114 157 0 20 19 62 28 62 5 0
21 -9 35 -20z m-647 -26 c21 -9 68 -21 104 -28 l65 -12 3 -84 c4 -118 -5 -121
-90 -30 -95 102 -145 170 -124 170 2 0 21 -7 42 -16z m484 1 c0 -14 -157 -198
-184 -217 -21 -14 -32 13 -34 85 -4 84 1 91 67 102 24 4 67 15 95 25 28 10 52
19 54 19 1 1 2 -6 2 -14z"/>
<path d="M3220 1225 l0 -45 395 0 395 0 0 45 0 45 -395 0 -395 0 0 -45z"/>
</g>
</svg>
